<?xml version="1.0" encoding="utf-8"?>
<!-- Generator: Adobe Illustrator 25.4.1, SVG Export Plug-In . SVG Version: 6.00 Build 0)  -->
<!DOCTYPE svg PUBLIC "-//W3C//DTD SVG 1.1//EN" "http://www.w3.org/Graphics/SVG/1.1/DTD/svg11.dtd" [
	<!ENTITY ns_extend "http://ns.adobe.com/Extensibility/1.0/">
	<!ENTITY ns_ai "http://ns.adobe.com/AdobeIllustrator/10.0/">
	<!ENTITY ns_graphs "http://ns.adobe.com/Graphs/1.0/">
	<!ENTITY ns_vars "http://ns.adobe.com/Variables/1.0/">
	<!ENTITY ns_imrep "http://ns.adobe.com/ImageReplacement/1.0/">
	<!ENTITY ns_sfw "http://ns.adobe.com/SaveForWeb/1.0/">
	<!ENTITY ns_custom "http://ns.adobe.com/GenericCustomNamespace/1.0/">
	<!ENTITY ns_adobe_xpath "http://ns.adobe.com/XPath/1.0/">
]>
<svg version="1.1" id="Lager_1" xmlns:x="&ns_extend;" xmlns:i="&ns_ai;" xmlns:graph="&ns_graphs;"
	 xmlns="http://www.w3.org/2000/svg" xmlns:xlink="http://www.w3.org/1999/xlink" x="0px" y="0px" viewBox="0 0 358.9 104.4"
	 style="enable-background:new 0 0 358.9 104.4;" xml:space="preserve">
<metadata>
	<sfw  xmlns="&ns_sfw;">
		<slices></slices>
		<sliceSourceBounds  bottomLeftOrigin="true" height="102.6" width="359.2" x="27.9" y="21.1"></sliceSourceBounds>
	</sfw>
</metadata>
<polygon points="51.9,53.6 45.6,57.2 43.5,58.4 39.3,56 39.3,51.2 41.4,50 47.7,46.4 84.4,25.2 68.2,15.8 52.4,24.9 44.1,29.7 
	24.1,41.2 24.1,64.8 44.5,76.5 64.4,65 72.8,60.2 72.8,69.8 72.8,69.9 44.5,86.2 15.8,69.6 15.8,36.4 59.9,11 44.1,1.9 0,27.3 
	0,78.7 15.8,87.8 15.8,87.8 44.5,104.4 72.8,88.1 88.6,79 88.6,60.8 88.6,60.7 88.6,32.4 "/>
<g>
	<path d="M117.6,70.5c-2.7-1.4-4.8-3.4-6.4-6c-1.5-2.6-2.3-5.5-2.3-8.7c0-3.2,0.8-6.2,2.3-8.7c1.5-2.6,3.6-4.5,6.3-6
		c2.7-1.4,5.8-2.2,9.2-2.2c3.2,0,6.1,0.7,8.5,2c2.4,1.3,4.3,3.2,5.5,5.7l-5.9,3.5c-0.9-1.5-2.1-2.7-3.5-3.4c-1.4-0.8-3-1.1-4.7-1.1
		c-2.9,0-5.3,0.9-7.2,2.8c-1.9,1.9-2.8,4.4-2.8,7.5s0.9,5.6,2.8,7.5c1.9,1.9,4.3,2.8,7.2,2.8c1.7,0,3.2-0.4,4.7-1.1
		c1.4-0.8,2.6-1.9,3.5-3.4l5.9,3.5c-1.3,2.5-3.1,4.4-5.6,5.7c-2.5,1.3-5.3,2-8.5,2C123.4,72.7,120.3,72,117.6,70.5z"/>
	<path d="M182.3,42.4c2.6,2.3,3.9,5.8,3.9,10.5v19.3h-7.3v-4c-0.9,1.4-2.3,2.5-4,3.3c-1.8,0.8-3.9,1.1-6.3,1.1
		c-2.5,0-4.6-0.4-6.5-1.3c-1.9-0.8-3.3-2-4.3-3.5c-1-1.5-1.5-3.2-1.5-5.1c0-3,1.1-5.3,3.3-7.1c2.2-1.8,5.7-2.7,10.4-2.7h8.5v-0.5
		c0-2.3-0.7-4.1-2.1-5.3c-1.4-1.2-3.4-1.9-6.1-1.9c-1.9,0-3.7,0.3-5.5,0.9c-1.8,0.6-3.3,1.4-4.5,2.4l-3-5.6c1.7-1.3,3.8-2.3,6.2-3
		c2.4-0.7,5-1,7.7-1C176,38.9,179.7,40.1,182.3,42.4z M175.3,65.7c1.5-0.9,2.6-2.1,3.2-3.8v-3.8h-8c-4.4,0-6.7,1.5-6.7,4.4
		c0,1.4,0.6,2.5,1.7,3.3c1.1,0.8,2.7,1.2,4.6,1.2C172,67.1,173.8,66.6,175.3,65.7z"/>
	<path d="M209.4,71.6c-2.6-0.7-4.6-1.6-6.1-2.7l3-5.9c1.5,1,3.3,1.8,5.3,2.4c2.1,0.6,4.1,0.9,6.1,0.9c4.6,0,6.9-1.2,6.9-3.6
		c0-1.2-0.6-2-1.8-2.4c-1.2-0.5-3.1-0.9-5.6-1.3c-2.7-0.4-4.9-0.9-6.6-1.4s-3.2-1.5-4.4-2.8c-1.3-1.3-1.9-3.2-1.9-5.6
		c0-3.1,1.3-5.6,3.9-7.5c2.6-1.9,6.1-2.8,10.6-2.8c2.3,0,4.5,0.3,6.8,0.8c2.3,0.5,4.1,1.2,5.6,2.1l-3,5.9c-2.8-1.6-5.9-2.5-9.4-2.5
		c-2.3,0-4,0.3-5.2,1c-1.2,0.7-1.8,1.6-1.8,2.7c0,1.2,0.6,2.1,1.9,2.6c1.3,0.5,3.2,1,5.8,1.5c2.6,0.4,4.8,0.9,6.5,1.4
		c1.7,0.5,3.1,1.4,4.4,2.7c1.2,1.3,1.8,3.1,1.8,5.4c0,3.1-1.3,5.6-4,7.4c-2.7,1.9-6.3,2.8-10.9,2.8C214.6,72.7,212,72.3,209.4,71.6z
		"/>
	<path d="M281.8,39.3v33h-7.3v-4.2c-1.2,1.5-2.8,2.6-4.6,3.4c-1.9,0.8-3.8,1.2-6,1.2c-4.4,0-7.9-1.2-10.4-3.7
		c-2.5-2.4-3.8-6.1-3.8-10.9V39.3h7.7v17.8c0,3,0.7,5.2,2,6.6c1.3,1.5,3.2,2.2,5.7,2.2c2.8,0,4.9-0.9,6.6-2.6
		c1.6-1.7,2.4-4.2,2.4-7.4V39.3H281.8z"/>
	<path d="M326.7,42.4c2.6,2.3,3.9,5.8,3.9,10.5v19.3h-7.3v-4c-0.9,1.4-2.3,2.5-4,3.3c-1.8,0.8-3.9,1.1-6.3,1.1
		c-2.5,0-4.6-0.4-6.5-1.3c-1.9-0.8-3.3-2-4.3-3.5c-1-1.5-1.5-3.2-1.5-5.1c0-3,1.1-5.3,3.3-7.1c2.2-1.8,5.7-2.7,10.4-2.7h8.5v-0.5
		c0-2.3-0.7-4.1-2.1-5.3c-1.4-1.2-3.4-1.9-6.1-1.9c-1.9,0-3.7,0.3-5.5,0.9c-1.8,0.6-3.3,1.4-4.5,2.4l-3-5.6c1.7-1.3,3.8-2.3,6.2-3
		c2.4-0.7,5-1,7.7-1C320.5,38.9,324.2,40.1,326.7,42.4z M319.7,65.7c1.5-0.9,2.6-2.1,3.2-3.8v-3.8h-8c-4.4,0-6.7,1.5-6.7,4.4
		c0,1.4,0.6,2.5,1.7,3.3c1.1,0.8,2.7,1.2,4.6,1.2C316.5,67.1,318.2,66.6,319.7,65.7z"/>
	<path d="M351.5,26.4h7.7v45.8h-7.7V26.4z"/>
</g>
</svg>
