<?xml version="1.0" encoding="utf-8"?>
<!-- Generator: Adobe Illustrator 25.2.3, SVG Export Plug-In . SVG Version: 6.00 Build 0)  -->
<svg version="1.1" id="Layer_1" xmlns="http://www.w3.org/2000/svg" xmlns:xlink="http://www.w3.org/1999/xlink" x="0px" y="0px"
	 viewBox="0 0 500 500" style="enable-background:new 0 0 500 500;" xml:space="preserve">
<style type="text/css">
	.st0{fill:none;stroke:#000000;stroke-width:34;stroke-miterlimit:10;}
</style>
<path d="M318.8,358.2c1-13.3,7.2-25.4,17.3-34.1c9.1-7.8,20.5-12,32.4-12c1.3,0,2.6,0.1,3.9,0.2c8.2,0.6,16,3.2,22.8,7.5
	c7.5-6.9,14.4-14.4,20.9-22.3l-2.4,1.3c-6.3-4.5-13.2-8-20.5-10.4l-3.1-22.9c-0.2-1.7-1.6-3-3.3-3.1l-20.7-1.6
	c-1.7-0.1-3.2,0.9-3.7,2.6l-6.6,22.2c-7.6,1.3-15,3.7-21.9,7.1l-18.5-14c-1.4-1-3.2-1-4.5,0.1l-15.8,13.5c-1.3,1.1-1.6,3-0.8,4.4
	l11,20.4c-4.5,6.3-8,13.1-10.4,20.5l-23,3.1c-1.7,0.2-3,1.6-3.1,3.3l-1.6,20.7c-0.1,1.7,0.9,3.2,2.6,3.7L292,375
	c1.3,7.6,3.7,14.9,7.1,21.8l-0.8,1.1c8.9-4,17.6-8,25.9-12.9C320.1,377,318.1,367.8,318.8,358.2z"/>
<path d="M275.4,175.9L248.6,161c0.6-10.3-0.4-20.6-3.1-30.6l23.3-19.9c1.3-1.1,1.6-3,0.8-4.5L257,82.3c-0.8-1.5-2.5-2.2-4.2-1.7
	L223.3,89c-3.9-4.4-8.1-8.3-12.7-11.9c-7,8.8-13.8,17.6-21.7,26c7.4,5.6,13.6,12.8,18.1,21.2c8.3,15.5,10.1,33.3,5,50.1
	c-10.5,34.7-47.2,54.5-82,44c-15.6-4.7-28.2-14.8-36.4-27.6c-7.9,10.3-15.4,21-23.1,32.3l4.3-1.2c6.9,7.7,14.8,14.2,23.7,19.4
	l-2.4,30.7c-0.1,1.7,1,3.3,2.6,3.7l25.7,7.8c0.3,0.1,0.7,0.2,1.1,0.2c1.3,0,2.5-0.7,3.2-1.9l14.9-26.9c10.3,0.6,20.5-0.5,30.5-3.1
	l20,23.4c1.1,1.3,3,1.6,4.5,0.8l23.7-12.7c1.5-0.8,2.2-2.5,1.7-4.2l-8.5-29.6c7.7-6.9,14.2-14.8,19.4-23.7l30.7,2.4
	c1.7,0.1,3.2-0.9,3.7-2.6l7.8-25.7C277.6,178.5,276.9,176.7,275.4,175.9z"/>
<path class="st0" d="M261.1,450.5l189.4-189.4c6.1-6.1,6.1-16,0-22.1L261.1,49.5c-6.1-6.1-16-6.1-22.1,0L49.5,238.9
	c-6.1,6.1-6.1,16,0,22.1l189.4,189.4C245,456.6,255,456.6,261.1,450.5z"/>
</svg>
