<?xml version="1.0" encoding="utf-8"?>
<!-- Generator: Adobe Illustrator 25.2.3, SVG Export Plug-In . SVG Version: 6.00 Build 0)  -->
<svg version="1.1" id="Layer_1" xmlns="http://www.w3.org/2000/svg" xmlns:xlink="http://www.w3.org/1999/xlink" x="0px" y="0px"
	 viewBox="0 0 100 100" style="enable-background:new 0 0 100 100;" xml:space="preserve">
<path d="M89.3,41.1H34.9c-2.3,0-4.1,1.8-4.1,4.1v34.4c0,2.3,1.8,4.1,4.1,4.1h54.4c2.3,0,4.1-1.8,4.1-4.1V45.1
	C93.3,42.9,91.5,41.1,89.3,41.1z"/>
<path d="M24.8,39.1c0-2.3,1.8-4.1,4.1-4.1h52.3v-2.1c0-2.3-1.8-4.1-4.1-4.1H22.7c-2.3,0-4.1,1.8-4.1,4.1v34.4c0,2.3,1.8,4.1,4.1,4.1
	h2.1C24.8,71.3,24.8,39.1,24.8,39.1z"/>
<path d="M12.2,26.6c0-2.3,1.8-4.1,4.1-4.1h52.2v-2.3c0-2.3-1.8-4.1-4.1-4.1H10c-2.3,0-4.1,1.8-4.1,4.1v34.4c0,2.3,1.8,4.1,4.1,4.1
	h2.3V26.6z"/>
</svg>
