<?xml version="1.0" encoding="utf-8"?>
<!-- Generator: Adobe Illustrator 25.2.3, SVG Export Plug-In . SVG Version: 6.00 Build 0)  -->
<svg version="1.1" xmlns="http://www.w3.org/2000/svg" xmlns:xlink="http://www.w3.org/1999/xlink" x="0px" y="0px"
	 viewBox="0 0 500 500" style="enable-background:new 0 0 500 500;" xml:space="preserve">
<style type="text/css">
	.st0{display:none;}
	.st1{stroke:#000000;stroke-width:7;stroke-miterlimit:10;}
</style>
<g id="Layer_1" class="st0">
	<path class="st1" d="M477.8,225.6l-58-12.6c-0.1,0-0.1-0.1-0.2-0.2c-4.4-20.4-12.4-39.4-23.3-56.4c0-0.1,0-0.2,0-0.2l32.1-49.9
		c0.1-0.1,0-0.2,0-0.3l-34.3-34.3c-0.1-0.1-0.2-0.1-0.3,0l-49.8,32.1c-0.1,0-0.2,0-0.2,0c-17-10.9-36.1-19-56.5-23.4
		c-0.1,0-0.1-0.1-0.2-0.2l-12.6-57.9c0-0.1-0.1-0.2-0.2-0.2h-48.6c-0.1,0-0.2,0.1-0.2,0.2l-12.6,57.9c0,0.1-0.1,0.1-0.2,0.2
		c-20.4,4.5-39.5,12.5-56.5,23.4c-0.1,0-0.2,0-0.2,0l-49.8-32.1c-0.1-0.1-0.2,0-0.3,0l-34.3,34.3c-0.1,0.1-0.1,0.2,0,0.3l32.1,49.9
		c0,0.1,0,0.2,0,0.2c-10.9,17-18.9,36.1-23.3,56.4c0,0.1-0.1,0.1-0.2,0.2l-58,12.6c-0.1,0-0.2,0.1-0.2,0.2v48.6
		c0,0.1,0.1,0.2,0.2,0.2l58.1,12.6c0.1,0,0.1,0.1,0.2,0.2c4.5,20.3,12.5,39.3,23.4,56.3c0,0.1,0,0.2,0,0.2l-32.2,50
		c-0.1,0.1,0,0.2,0,0.3l34.3,34.3c0.1,0.1,0.2,0.1,0.3,0l50-32.2c0.1,0,0.2,0,0.2,0c17,10.9,35.9,18.8,56.2,23.3
		c0.1,0,0.1,0.1,0.2,0.2l12.6,58.2c0,0.1,0.1,0.2,0.2,0.2h48.6c0.1,0,0.2-0.1,0.2-0.2l12.6-58.2c0-0.1,0.1-0.1,0.2-0.2
		c20.3-4.4,39.3-12.4,56.2-23.3c0.1,0,0.2,0,0.2,0l50,32.2c0.1,0.1,0.2,0,0.3,0l34.3-34.3c0.1-0.1,0.1-0.2,0-0.3l-32.2-50
		c0-0.1,0-0.2,0-0.2c10.9-17,18.9-36,23.4-56.3c0-0.1,0.1-0.1,0.2-0.2l58.1-12.6c0.1,0,0.2-0.1,0.2-0.2v-48.6
		C478,225.7,477.9,225.6,477.8,225.6z M250,375.1c-69.1,0-125.1-56-125.1-125.1s56-125.1,125.1-125.1s125.1,56,125.1,125.1
		S319.1,375.1,250,375.1z"/>
</g>
<g id="Layer_2">
	<path class="st1" d="M478.9,361.1l-30.6-9.2c0,0-0.1-0.1-0.1-0.1c-1.5-11.1-5-21.7-10.2-31.2c0,0,0-0.1,0-0.1l19.3-25.4
		c0,0,0-0.1,0-0.1l-17-19.8c0,0-0.1-0.1-0.1,0l-28.1,15.1c0,0-0.1,0-0.1,0c-8.7-6.6-18.6-11.7-29.3-14.9c0,0-0.1,0-0.1-0.1
		l-4.3-31.6c0-0.1-0.1-0.1-0.1-0.1l-26-2c-0.1,0-0.1,0-0.1,0.1l-9.1,30.5c0,0,0,0.1-0.1,0.1c-11.1,1.5-21.7,5.1-31.3,10.2
		c0,0-0.1,0-0.1,0l-25.4-19.3c0,0-0.1,0-0.1,0l-19.8,17c0,0-0.1,0.1,0,0.1l15.1,28.1c0,0,0,0.1,0,0.1c-6.6,8.7-11.6,18.5-14.9,29.3
		c0,0,0,0.1-0.1,0.1l-31.6,4.3c-0.1,0-0.1,0.1-0.1,0.1l-2,26c0,0.1,0,0.1,0.1,0.1l30.6,9.2c0,0,0.1,0,0.1,0.1
		c1.5,11.1,5,21.6,10.2,31.2c0,0,0,0.1,0,0.1l-19.3,25.5c0,0,0,0.1,0,0.1l17,19.8c0,0,0.1,0.1,0.1,0l28.2-15.2c0,0,0.1,0,0.1,0
		c8.6,6.5,18.5,11.6,29.2,14.8c0,0,0.1,0,0.1,0.1l4.3,31.7c0,0.1,0.1,0.1,0.1,0.1l26,2c0.1,0,0.1,0,0.1-0.1l9.2-30.7
		c0,0,0-0.1,0.1-0.1c11.1-1.5,21.6-5,31.1-10.1c0,0,0.1,0,0.1,0l25.5,19.3c0,0,0.1,0,0.1,0l19.8-17c0,0,0.1-0.1,0-0.1l-15.2-28.1
		c0,0,0-0.1,0-0.1c6.5-8.6,11.6-18.5,14.9-29.2c0,0,0-0.1,0.1-0.1l31.6-4.3c0.1,0,0.1-0.1,0.1-0.1l2-26
		C479,361.2,479,361.1,478.9,361.1z M350.6,431.8c-37.1-2.9-64.8-35.2-61.9-72.3c2.9-37.1,35.2-64.8,72.3-61.9
		c37.1,2.9,64.8,35.2,61.9,72.3C420,407,387.6,434.7,350.6,431.8z"/>
	<path class="st1" d="M327.6,215.8l-33.9-23.6c0,0-0.1-0.1-0.1-0.1c2.6-14.3,2.6-28.7,0.1-42.6c0-0.1,0-0.1,0.1-0.1l34-23.5
		c0.1,0,0.1-0.1,0.1-0.2l-12.9-31.3c0-0.1-0.1-0.1-0.2-0.1l-40.7,7.3c-0.1,0-0.1,0-0.1-0.1c-8-11.6-18.1-21.9-30.1-30.2
		c0,0-0.1-0.1-0.1-0.1l7.4-40.6c0-0.1,0-0.1-0.1-0.2l-31.2-13c-0.1,0-0.1,0-0.2,0.1l-23.6,33.9c0,0-0.1,0.1-0.1,0.1
		c-14.3-2.6-28.7-2.5-42.6-0.1c-0.1,0-0.1,0-0.1-0.1l-23.5-34c0-0.1-0.1-0.1-0.2-0.1L98.3,29.9c-0.1,0-0.1,0.1-0.1,0.2l7.3,40.7
		c0,0.1,0,0.1-0.1,0.1C93.8,78.9,83.5,89,75.2,101c0,0-0.1,0.1-0.1,0.1l-40.7-7.5c-0.1,0-0.1,0-0.2,0.1l-13,31.2
		c0,0.1,0,0.1,0.1,0.2l34,23.7c0,0,0.1,0.1,0.1,0.1c-2.6,14.3-2.5,28.6-0.1,42.5c0,0.1,0,0.1-0.1,0.1L21,215.1
		c-0.1,0-0.1,0.1-0.1,0.2l12.9,31.3c0,0.1,0.1,0.1,0.2,0.1l40.8-7.3c0.1,0,0.1,0,0.1,0.1c8,11.5,18.1,21.8,29.9,30.1
		c0,0,0.1,0.1,0.1,0.1l-7.5,40.8c0,0.1,0,0.1,0.1,0.2l31.2,13c0.1,0,0.1,0,0.2-0.1l23.7-34c0,0,0.1-0.1,0.1-0.1
		c14.3,2.6,28.6,2.5,42.4,0.1c0.1,0,0.1,0,0.1,0.1l23.6,34.1c0,0.1,0.1,0.1,0.2,0.1l31.3-12.9c0.1,0,0.1-0.1,0.1-0.2l-7.3-40.8
		c0-0.1,0-0.1,0.1-0.1c11.6-8,21.8-18.1,30.1-30c0,0,0.1-0.1,0.1-0.1l40.7,7.5c0.1,0,0.1,0,0.2-0.1l13-31.2
		C327.7,215.9,327.6,215.8,327.6,215.8z M140.9,250.9c-44.5-18.5-65.5-69.6-47-114.1s69.6-65.5,114.1-47s65.5,69.6,47,114.1
		S185.4,269.4,140.9,250.9z"/>
</g>
</svg>
