<?xml version="1.0" encoding="utf-8"?>
<!-- Generator: Adobe Illustrator 25.2.3, SVG Export Plug-In . SVG Version: 6.00 Build 0)  -->
<svg version="1.1" id="Layer_1" xmlns="http://www.w3.org/2000/svg" xmlns:xlink="http://www.w3.org/1999/xlink" x="0px" y="0px"
	 viewBox="0 0 500 500" style="enable-background:new 0 0 500 500;" xml:space="preserve">
<style type="text/css">
	.st0{fill:#FFFFFF;stroke:#000000;stroke-width:35;stroke-miterlimit:10;}
</style>
<path class="st0" d="M66.3,57.8h142c4.7,0,8.5,3.8,8.5,8.5v142c0,4.7-3.8,8.5-8.5,8.5h-142c-4.7,0-8.5-3.8-8.5-8.5v-142
	C57.8,61.6,61.6,57.8,66.3,57.8z"/>
<path class="st0" d="M291.6,57.8h142c4.7,0,8.5,3.8,8.5,8.5v142c0,4.7-3.8,8.5-8.5,8.5h-142c-4.7,0-8.5-3.8-8.5-8.5v-142
	C283.1,61.6,286.9,57.8,291.6,57.8z"/>
<path class="st0" d="M66.3,283.1h142c4.7,0,8.5,3.8,8.5,8.5v142c0,4.7-3.8,8.5-8.5,8.5h-142c-4.7,0-8.5-3.8-8.5-8.5v-142
	C57.8,286.9,61.6,283.1,66.3,283.1z"/>
<path class="st0" d="M291.6,283.1h142c4.7,0,8.5,3.8,8.5,8.5v142c0,4.7-3.8,8.5-8.5,8.5h-142c-4.7,0-8.5-3.8-8.5-8.5v-142
	C283.1,286.9,286.9,283.1,291.6,283.1z"/>
</svg>
